<?xml version="1.0" encoding="UTF-8" standalone="no"?>
<!-- Created with Inkscape (http://www.inkscape.org/) -->

<svg
   width="2.5559464mm"
   height="4.2333274mm"
   id="svg2"
   version="1.1"
   xmlns="http://www.w3.org/2000/svg"
   xmlns:svg="http://www.w3.org/2000/svg"
   xmlns:rdf="http://www.w3.org/1999/02/22-rdf-syntax-ns#"
   xmlns:cc="http://creativecommons.org/ns#"
   xmlns:dc="http://purl.org/dc/elements/1.1/">
  <title
     id="title5870">SVG Stencils</title>
  <defs
     id="defs4" />
  <metadata
     id="metadata7">
    <rdf:RDF>
      <cc:Work
         rdf:about="">
        <dc:format>image/svg+xml</dc:format>
        <dc:type
           rdf:resource="http://purl.org/dc/dcmitype/StillImage" />
        <dc:title>SVG Stencils</dc:title>
        <dc:creator>
          <cc:Agent>
            <dc:title>Waltzer Kristopher</dc:title>
          </cc:Agent>
        </dc:creator>
        <dc:rights>
          <cc:Agent>
            <dc:title />
          </cc:Agent>
        </dc:rights>
        <dc:language />
        <dc:subject>
          <rdf:Bag>
            <rdf:li>architecture stencils server network virtual machine datacenter</rdf:li>
          </rdf:Bag>
        </dc:subject>
        <cc:license
           rdf:resource="http://artlibre.org/licence/lal" />
      </cc:Work>
      <cc:License
         rdf:about="http://creativecommons.org/licenses/by-sa/3.0/">
        <cc:permits
           rdf:resource="http://creativecommons.org/ns#Reproduction" />
        <cc:permits
           rdf:resource="http://creativecommons.org/ns#Distribution" />
        <cc:requires
           rdf:resource="http://creativecommons.org/ns#Notice" />
        <cc:requires
           rdf:resource="http://creativecommons.org/ns#Attribution" />
        <cc:permits
           rdf:resource="http://creativecommons.org/ns#DerivativeWorks" />
        <cc:requires
           rdf:resource="http://creativecommons.org/ns#ShareAlike" />
      </cc:License>
    </rdf:RDF>
  </metadata>
  <g
     id="layer21"
     style="display:inline"
     transform="translate(-588.89697,-165.0002)">
    <path
       id="path10016-9-8"
       d="m 484.97424,322.36216 v 7.5 l -2.16508,3.75001 -6.49519,3.75004 v -10 z"
       style="display:inline;fill:#000000;fill-opacity:1;stroke:#000000;stroke-width:1px;stroke-linecap:butt;stroke-linejoin:round;stroke-opacity:1"
       transform="translate(113.083,-156.862)" />
    <g
       transform="matrix(0.151812,-0.0876485,0,0.149547,563.764,81.0311)"
       id="g4181"
       style="display:inline">
      <rect
         style="fill:#efa724;fill-opacity:1;stroke:none;stroke-width:1.00005;stroke-miterlimit:4;stroke-opacity:1"
         id="rect2070"
         width="19.000521"
         height="18.998014"
         x="-654.55585"
         y="-375.16251"
         transform="matrix(-0.707123,-0.70709,0.707123,-0.70709,0,0)" />
      <rect
         style="fill:#932279;fill-opacity:1;stroke:none;stroke-width:1.00005;stroke-miterlimit:4;stroke-opacity:1"
         id="rect2068"
         width="19.000624"
         height="18.998116"
         x="-654.55774"
         y="-397.79163"
         transform="matrix(-0.707125,-0.707088,0.707125,-0.707088,0,0)" />
      <rect
         style="fill:#9ccd2a;fill-opacity:1;stroke:none;stroke-width:1;stroke-miterlimit:4;stroke-opacity:1"
         id="rect1274"
         width="18.949768"
         height="18.947376"
         x="176.12981"
         y="709.15631" />
      <rect
         style="fill:#9ccd2a;fill-opacity:1;stroke:none;stroke-width:1.00006;stroke-miterlimit:4;stroke-opacity:1"
         id="rect2064"
         width="18.950821"
         height="18.94832"
         x="-677.16235"
         y="-397.82132"
         transform="matrix(-0.70713,-0.707084,0.70713,-0.707084,0,0)" />
      <rect
         style="fill:#262577;fill-opacity:1;stroke:none;stroke-width:1;stroke-miterlimit:4;stroke-opacity:1"
         id="rect2039"
         width="18.999775"
         height="18.997324"
         x="176.12979"
         y="733.10638" />
      <rect
         style="fill:#262577;fill-opacity:1;stroke:none;stroke-width:1.00005;stroke-miterlimit:4;stroke-opacity:1"
         id="rect2066"
         width="19.000608"
         height="18.998064"
         x="-677.18439"
         y="-375.16501"
         transform="matrix(-0.707125,-0.707088,0.707125,-0.707088,0,0)" />
      <rect
         style="fill:#932279;fill-opacity:1;stroke:none;stroke-width:1;stroke-miterlimit:4;stroke-opacity:1"
         id="rect2041"
         width="18.999783"
         height="18.99736"
         x="200.12953"
         y="709.10638" />
      <rect
         style="opacity:1;fill:#262577;fill-opacity:1;stroke:#b091bc;stroke-width:0;stroke-linejoin:miter;stroke-miterlimit:4;stroke-dasharray:none;stroke-opacity:0"
         id="rect2082"
         width="19.000616"
         height="18.998072"
         x="-677.18439"
         y="-375.16501"
         transform="matrix(-0.707125,-0.707088,0.707125,-0.707088,0,0)" />
      <rect
         style="fill:#efa724;fill-opacity:1;stroke:none;stroke-width:1;stroke-miterlimit:4;stroke-opacity:1"
         id="rect2086"
         width="18.999775"
         height="18.997362"
         x="200.12953"
         y="733.10632" />
      <path
         style="fill:#ffffff;fill-opacity:1;stroke:none;stroke-width:1.00005;stroke-miterlimit:4;stroke-opacity:1"
         d="m 197.57593,728.80659 0.35356,-0.35354 13.43543,-13.43463 0.35356,-0.35354 -0.35356,-0.35355 -13.43543,-13.43463 -0.35356,-0.35354 -0.35357,0.35354 -13.43543,13.43463 -0.35356,0.35355 0.35356,0.35354 13.43543,13.43463 z m 0,-1.41417 -12.7283,-12.72754 12.7283,-12.72755 12.7283,12.72755 z"
         id="rect2140" />
      <path
         style="fill:#ffffff;fill-opacity:1;stroke:none;stroke-width:1.00005;stroke-miterlimit:4;stroke-opacity:1"
         d="m 181.57755,744.80283 0.35356,-0.35354 13.41336,-13.41251 0.35356,-0.35354 -0.35356,-0.35354 -13.43546,-13.43461 -0.35356,-0.35354 -0.35357,0.35354 -13.41336,13.41251 -0.35356,0.35354 0.35356,0.35354 13.43546,13.43461 z m 0,-1.41417 -12.72833,-12.72752 12.70623,-12.70542 12.72833,12.72752 z"
         id="rect2142" />
      <path
         style="fill:#ffffff;fill-opacity:1;stroke:none;stroke-width:1;stroke-miterlimit:4;stroke-opacity:1"
         d="m 175.625,708.65625 v 0.5 18.9375 0.5 h 0.5 18.96875 0.5 v -0.5 -18.9375 -0.5 h -0.5 -18.96875 z m 1,1 h 17.96875 v 17.9375 H 176.625 Z"
         id="rect2144" />
      <path
         style="fill:#ffffff;fill-opacity:1;stroke:none;stroke-width:1.00006;stroke-miterlimit:4;stroke-opacity:1"
         d="m 197.53327,760.79631 0.35356,-0.35354 13.39134,-13.39034 0.35357,-0.35354 -0.35357,-0.35354 -13.39134,-13.39033 -0.35356,-0.35354 -0.35357,0.35354 -13.39134,13.39033 -0.35356,0.35354 0.35356,0.35354 13.39134,13.39034 z m 0,-1.41416 -12.68421,-12.68326 12.68421,-12.68325 12.6842,12.68325 z"
         id="rect2146" />
      <path
         style="fill:#ffffff;fill-opacity:1;stroke:none;stroke-width:1;stroke-miterlimit:4;stroke-opacity:1"
         d="m 175.625,732.59375 v 0.5 19 0.5 h 0.5 19 0.5 v -0.5 -19 -0.5 h -0.5 -19 z m 1,1 h 18 v 18 h -18 z"
         id="rect2148" />
      <path
         style="fill:#ffffff;fill-opacity:1;stroke:none;stroke-width:1.00005;stroke-miterlimit:4;stroke-opacity:1"
         d="m 213.57515,744.80283 0.35356,-0.35354 13.43546,-13.43461 0.35356,-0.35354 -0.35356,-0.35354 -13.43546,-13.4346 -0.35356,-0.35354 -0.35357,0.35354 -13.43545,13.4346 -0.35357,0.35354 0.35357,0.35354 13.43545,13.43461 z m 0,-1.41417 -12.72833,-12.72752 12.72833,-12.72752 12.72832,12.72752 z"
         id="rect2150" />
      <path
         style="fill:#ffffff;fill-opacity:1;stroke:none;stroke-width:1;stroke-miterlimit:4;stroke-opacity:1"
         d="m 199.625,708.59375 v 0.5 19 0.5 h 0.5 19 0.5 v -0.5 -19 -0.5 h -0.5 -19 z m 1,1 h 18 v 18 h -18 z"
         id="rect2152" />
      <path
         style="fill:#ffffff;fill-opacity:1;stroke:none;stroke-width:1;stroke-miterlimit:4;stroke-opacity:1"
         d="m 199.625,732.59375 v 0.5 19 0.5 h 0.5 19 0.5 v -0.5 -19 -0.5 h -0.5 -19 z m 1,1 h 18 v 18 h -18 z"
         id="rect2154" />
      <path
         transform="translate(165.576,698.66)"
         id="path2406"
         d="m 43.227364,24.13847 4.771875,-4.771875 2.483144,2.4813 2.483134,2.481301 v 2.290574 2.290575 h -7.255011 -7.255017 z"
         style="opacity:1;fill:#262577;fill-opacity:1;stroke:#b091bc;stroke-width:0;stroke-linejoin:miter;stroke-miterlimit:4;stroke-dasharray:none;stroke-opacity:0" />
      <path
         transform="translate(165.576,698.66)"
         id="path2408"
         d="m 43.227364,24.13847 4.771875,-4.771875 2.483144,2.4813 2.483134,2.481301 v 2.290574 2.290575 h -7.255011 -7.255017 z"
         style="opacity:1;fill:#932279;fill-opacity:1;stroke:#b091bc;stroke-width:0;stroke-linejoin:miter;stroke-miterlimit:4;stroke-dasharray:none;stroke-opacity:0" />
    </g>
  </g>
</svg>
