<?xml version="1.0" encoding="UTF-8" standalone="no"?>
<!-- Created with Inkscape (http://www.inkscape.org/) -->

<svg
   width="2.5559464mm"
   height="4.2333274mm"
   id="svg2"
   version="1.1"
   xmlns="http://www.w3.org/2000/svg"
   xmlns:svg="http://www.w3.org/2000/svg"
   xmlns:rdf="http://www.w3.org/1999/02/22-rdf-syntax-ns#"
   xmlns:cc="http://creativecommons.org/ns#"
   xmlns:dc="http://purl.org/dc/elements/1.1/">
  <title
     id="title5870">SVG Stencils</title>
  <defs
     id="defs4" />
  <metadata
     id="metadata7">
    <rdf:RDF>
      <cc:Work
         rdf:about="">
        <dc:format>image/svg+xml</dc:format>
        <dc:type
           rdf:resource="http://purl.org/dc/dcmitype/StillImage" />
        <dc:title>SVG Stencils</dc:title>
        <dc:creator>
          <cc:Agent>
            <dc:title>Waltzer Kristopher</dc:title>
          </cc:Agent>
        </dc:creator>
        <dc:rights>
          <cc:Agent>
            <dc:title />
          </cc:Agent>
        </dc:rights>
        <dc:language />
        <dc:subject>
          <rdf:Bag>
            <rdf:li>architecture stencils server network virtual machine datacenter</rdf:li>
          </rdf:Bag>
        </dc:subject>
        <cc:license
           rdf:resource="http://artlibre.org/licence/lal" />
      </cc:Work>
      <cc:License
         rdf:about="http://creativecommons.org/licenses/by-sa/3.0/">
        <cc:permits
           rdf:resource="http://creativecommons.org/ns#Reproduction" />
        <cc:permits
           rdf:resource="http://creativecommons.org/ns#Distribution" />
        <cc:requires
           rdf:resource="http://creativecommons.org/ns#Notice" />
        <cc:requires
           rdf:resource="http://creativecommons.org/ns#Attribution" />
        <cc:permits
           rdf:resource="http://creativecommons.org/ns#DerivativeWorks" />
        <cc:requires
           rdf:resource="http://creativecommons.org/ns#ShareAlike" />
      </cc:License>
    </rdf:RDF>
  </metadata>
  <g
     id="layer22"
     style="display:inline"
     transform="translate(-601.88799,-157.50019)">
    <g
       transform="translate(364.231,-621.862)"
       id="g8458"
       style="display:inline">
      <path
         style="fill:#000000;fill-opacity:1;stroke:#000000;stroke-width:1px;stroke-linecap:butt;stroke-linejoin:round;stroke-opacity:1"
         d="m 246.81726,779.86215 v 7.5 l -2.16508,3.75001 -6.49519,3.75004 v -10 z"
         id="path10016-9-8-7" />
      <path
         id="path16-7"
         d="m 242.60632,782.56393 c -0.82448,0.53381 -1.52374,1.65996 -2.00966,2.75275 -0.51972,1.17845 -0.76978,2.45568 -0.66808,3.49599 0.0536,1.08186 0.32272,2.04551 0.88478,2.58515 0.58867,0.59621 1.48364,0.76911 2.43717,0.20192 0.15897,-0.11348 0.22736,-0.46813 0.0633,-0.45598 -0.21023,0.0225 -0.43153,0.12177 -0.62847,0.084 -0.52258,-0.0312 -0.96727,-0.28944 -1.28077,-0.74056 -0.24987,-0.72087 -0.78998,-1.17017 -0.78579,-2.13228 -0.0116,-0.88688 0.18815,-1.95989 0.73202,-2.8824 0.60936,-0.9405 1.35128,-1.9326 2.12905,-2.20837 0.75082,-0.28295 1.36637,0.22704 1.41743,1.17206 0.0305,0.4379 0.0481,0.9118 -0.10815,1.42242 -0.3057,0.91602 -1.08826,1.79316 -1.6838,1.71352 -0.59619,-0.062 -0.71279,-1.26075 -0.1314,-2.09568 0.23945,-0.34379 0.53518,-0.43492 0.79463,-0.51228 0.16342,-0.0806 0.34211,-0.42599 0.22399,-0.55211 -0.45704,-0.24 -1.18668,0.38438 -1.56246,1.15434 -0.45857,0.8756 -0.53729,1.97059 -0.13124,2.4137 -0.10906,0.26062 0.0611,0.37244 0.14753,0.47284 0.2901,0.22482 0.72737,0.15495 1.13912,-0.0817 0.0721,-0.0676 0.14013,-0.18231 0.14942,-0.28754 0.34707,-0.16948 0.71428,-0.48869 0.97019,-0.95557 0.58374,-0.8623 1.05997,-2.0166 0.98958,-2.9291 -0.009,-0.14492 -0.0641,-0.2948 -0.0598,-0.42638 0.13915,-0.0472 0.25458,-0.30714 0.20542,-0.44613 -0.0569,-1.06363 -0.75173,-1.56881 -1.54848,-1.40529 -0.54175,0.0792 -1.11515,0.30892 -1.6855,0.6427 z"
         style="fill:#d70751;stroke:#ffffff;stroke-width:0.2;stroke-miterlimit:4;stroke-dasharray:none;stroke-opacity:1" />
    </g>
  </g>
</svg>
