<?xml version="1.0" encoding="UTF-8" standalone="no"?>
<!-- Created with Inkscape (http://www.inkscape.org/) -->

<svg
   width="2.5559464mm"
   height="4.2333274mm"
   id="svg2"
   version="1.1"
   xmlns="http://www.w3.org/2000/svg"
   xmlns:svg="http://www.w3.org/2000/svg"
   xmlns:rdf="http://www.w3.org/1999/02/22-rdf-syntax-ns#"
   xmlns:cc="http://creativecommons.org/ns#"
   xmlns:dc="http://purl.org/dc/elements/1.1/">
  <title
     id="title5870">SVG Stencils</title>
  <defs
     id="defs4" />
  <metadata
     id="metadata7">
    <rdf:RDF>
      <cc:Work
         rdf:about="">
        <dc:format>image/svg+xml</dc:format>
        <dc:type
           rdf:resource="http://purl.org/dc/dcmitype/StillImage" />
        <dc:title>SVG Stencils</dc:title>
        <dc:creator>
          <cc:Agent>
            <dc:title>Waltzer Kristopher</dc:title>
          </cc:Agent>
        </dc:creator>
        <dc:rights>
          <cc:Agent>
            <dc:title />
          </cc:Agent>
        </dc:rights>
        <dc:language />
        <dc:subject>
          <rdf:Bag>
            <rdf:li>architecture stencils server network virtual machine datacenter</rdf:li>
          </rdf:Bag>
        </dc:subject>
        <cc:license
           rdf:resource="http://artlibre.org/licence/lal" />
      </cc:Work>
      <cc:License
         rdf:about="http://creativecommons.org/licenses/by-sa/3.0/">
        <cc:permits
           rdf:resource="http://creativecommons.org/ns#Reproduction" />
        <cc:permits
           rdf:resource="http://creativecommons.org/ns#Distribution" />
        <cc:requires
           rdf:resource="http://creativecommons.org/ns#Notice" />
        <cc:requires
           rdf:resource="http://creativecommons.org/ns#Attribution" />
        <cc:permits
           rdf:resource="http://creativecommons.org/ns#DerivativeWorks" />
        <cc:requires
           rdf:resource="http://creativecommons.org/ns#ShareAlike" />
      </cc:License>
    </rdf:RDF>
  </metadata>
  <g
     id="layer23"
     style="display:inline"
     transform="translate(-601.88799,-172.50019)">
    <g
       transform="translate(364.231,-621.862)"
       id="g8448"
       style="display:inline">
      <path
         style="fill:#000000;fill-opacity:1;stroke:#000000;stroke-width:1px;stroke-linecap:butt;stroke-linejoin:round;stroke-opacity:1"
         d="m 246.81726,794.86215 v 7.5 l -2.16508,3.75001 -6.49519,3.75004 v -10 z"
         id="path10016-9-8-7-0" />
      <g
         transform="matrix(0.0450431,-0.0260057,0,0.0450431,238.789,800.893)"
         id="circle">
        <circle
           style="fill:#ff6309;stroke:#ffffff;stroke-width:2.75949;stroke-miterlimit:4;stroke-dasharray:none;stroke-opacity:1"
           transform="matrix(1.60906,0,0,1.60906,10,4.54051)"
           r="9.1239996"
           cy="46.903999"
           cx="9.1239996"
           id="orange-circle" />
        <circle
           style="fill:#ffb515;stroke:#ffffff;stroke-width:2.75949;stroke-miterlimit:4;stroke-dasharray:none;stroke-opacity:1"
           transform="matrix(1.60906,0,0,1.60906,10,4.54051)"
           r="9.1239996"
           cy="84.667"
           cx="74.547997"
           id="yellow-circle" />
        <circle
           style="fill:#c90016;stroke:#ffffff;stroke-width:2.75949;stroke-miterlimit:4;stroke-dasharray:none;stroke-opacity:1"
           transform="matrix(1.60906,0,0,1.60906,10,4.54051)"
           r="9.1239996"
           cy="9.1260004"
           cx="74.540001"
           id="red-circle" />
        <path
           style="fill:#ff6309;stroke:#ffffff;stroke-width:4.44019;stroke-miterlimit:4;stroke-dasharray:none;stroke-opacity:1"
           d="m 94.860335,43.684163 c 18.280555,0 33.447575,13.574049 35.959315,31.17236 h 25.15286 c -1.14243,-13.828279 -6.87552,-26.716866 -16.4607,-36.881312 -6.13857,3.126408 -13.68668,3.185944 -20.0988,-0.5149 -6.41694,-3.70567 -10.14031,-10.27708 -10.49752,-17.163866 -4.55526,-1.061981 -9.261764,-1.612281 -14.055155,-1.612281 -9.178092,0 -18.047241,2.003282 -26.113476,5.802279 l 12.592525,21.810838 c 4.181948,-1.683079 8.745255,-2.613118 13.520951,-2.613118 z"
           id="orange-arm" />
        <path
           style="fill:#ffb515;stroke:#ffffff;stroke-width:4.44019;stroke-miterlimit:4;stroke-dasharray:none;stroke-opacity:1"
           d="m 58.534144,80.01196 c 0,-11.573984 5.440238,-21.899335 13.895861,-28.556028 L 59.8407,29.648314 c -2.952629,2.062818 -5.745957,4.397567 -8.347812,6.997812 -7.285835,7.285833 -12.510459,16.082575 -15.385853,25.683852 5.792623,3.752331 9.628627,10.265819 9.628627,17.681982 0,7.414562 -3.836004,13.929651 -9.628627,17.680379 2.875394,9.601281 8.100018,18.398021 15.385853,25.683851 2.600245,2.60024 5.390356,4.93178 8.341377,6.99621 L 72.425178,108.56317 C 63.971165,101.90647 58.534144,91.581118 58.534144,80.01196 Z"
           id="yellow-arm" />
        <path
           style="fill:#c90016;stroke:#ffffff;stroke-width:4.44019;stroke-miterlimit:4;stroke-dasharray:none;stroke-opacity:1"
           d="m 130.82126,85.151311 c -2.50531,17.604749 -17.67555,31.186849 -35.960925,31.186849 -4.778922,0 -9.34383,-0.93004 -13.525777,-2.61634 l -12.594132,21.81245 c 8.064616,3.8006 16.93699,5.80549 26.118297,5.80549 4.796615,0 9.509557,-0.55352 14.066427,-1.6155 0.35077,-6.89483 4.07575,-13.47751 10.49752,-17.18479 6.41372,-3.70405 13.96504,-3.64452 20.10523,-0.51168 9.57714,-10.16605 15.30379,-23.053029 16.443,-36.876479 l -25.14964,-6e-6 v 0 z"
           id="red-arm" />
      </g>
    </g>
  </g>
</svg>
