<?xml version="1.0" encoding="UTF-8" standalone="no"?>
<!-- Created with Inkscape (http://www.inkscape.org/) -->

<svg
   width="2.5559464mm"
   height="4.2333274mm"
   id="svg2"
   version="1.1"
   xmlns="http://www.w3.org/2000/svg"
   xmlns:svg="http://www.w3.org/2000/svg"
   xmlns:rdf="http://www.w3.org/1999/02/22-rdf-syntax-ns#"
   xmlns:cc="http://creativecommons.org/ns#"
   xmlns:dc="http://purl.org/dc/elements/1.1/">
  <title
     id="title5870">SVG Stencils</title>
  <defs
     id="defs4" />
  <metadata
     id="metadata7">
    <rdf:RDF>
      <cc:Work
         rdf:about="">
        <dc:format>image/svg+xml</dc:format>
        <dc:type
           rdf:resource="http://purl.org/dc/dcmitype/StillImage" />
        <dc:title>SVG Stencils</dc:title>
        <dc:creator>
          <cc:Agent>
            <dc:title>Waltzer Kristopher</dc:title>
          </cc:Agent>
        </dc:creator>
        <dc:rights>
          <cc:Agent>
            <dc:title />
          </cc:Agent>
        </dc:rights>
        <dc:language />
        <dc:subject>
          <rdf:Bag>
            <rdf:li>architecture stencils server network virtual machine datacenter</rdf:li>
          </rdf:Bag>
        </dc:subject>
        <cc:license
           rdf:resource="http://artlibre.org/licence/lal" />
      </cc:Work>
      <cc:License
         rdf:about="http://creativecommons.org/licenses/by-sa/3.0/">
        <cc:permits
           rdf:resource="http://creativecommons.org/ns#Reproduction" />
        <cc:permits
           rdf:resource="http://creativecommons.org/ns#Distribution" />
        <cc:requires
           rdf:resource="http://creativecommons.org/ns#Notice" />
        <cc:requires
           rdf:resource="http://creativecommons.org/ns#Attribution" />
        <cc:permits
           rdf:resource="http://creativecommons.org/ns#DerivativeWorks" />
        <cc:requires
           rdf:resource="http://creativecommons.org/ns#ShareAlike" />
      </cc:License>
    </rdf:RDF>
  </metadata>
  <g
     id="layer24"
     style="display:inline"
     transform="translate(-614.87797,-150.00019)">
    <g
       id="g8492"
       transform="translate(360.983,-632.487)"
       style="display:inline">
      <path
         style="fill:#000000;fill-opacity:1;stroke:#000000;stroke-width:1px;stroke-linecap:butt;stroke-linejoin:round;stroke-opacity:1"
         d="m 263.05524,782.98715 v 7.5 l -2.16508,3.75001 -6.49519,3.75004 v -10 z"
         id="path10016-9-8-7-0-5" />
      <g
         transform="matrix(1.10075,-0.635518,0,1.10075,-25.9702,83.9999)"
         id="g8472">
        <path
           d="m 259.94747,794.09947 c 0.0364,-0.0483 0.17521,-0.19927 0.25947,-0.36218 0.0758,-0.14523 0.14319,-0.18699 0.23565,-0.32581 0.0274,-0.0407 0.13268,-0.18417 0.16341,-0.29712 0.0344,-0.11086 0.0228,-0.24948 0.0361,-0.3066 0.0189,-0.0825 0.0965,-0.261 0.10239,-0.36218 0.003,-0.0571 -0.23846,0.0814 -0.35321,0.0814 -0.11475,0 -0.22668,-0.0686 -0.32914,-0.0733 -0.12679,-0.007 -0.2085,0.0976 -0.3235,0.0791 -0.0653,-0.0103 -0.1209,-0.0679 -0.23514,-0.0723 -0.16315,-0.006 -0.36269,0.0907 -0.73691,0.0786 -0.36832,-0.012 -0.70848,-0.46515 -0.75484,-0.53712 -0.0545,-0.0848 -0.12114,-0.0848 -0.19338,-0.0182 -0.0725,0.0661 -0.16214,0.0141 -0.18723,-0.0302 -0.0483,-0.0848 -0.17752,-0.33145 -0.37756,-0.38344 -0.27662,-0.0717 -0.41673,0.15317 -0.39854,0.33195 0.0184,0.18134 0.136,0.23232 0.19055,0.32888 0.0541,0.0963 0.082,0.15906 0.18392,0.20184 0.0727,0.03 0.0996,0.0748 0.0781,0.13422 -0.0189,0.0518 -0.0943,0.0638 -0.14421,0.0661 -0.10525,0.005 -0.17903,-0.0236 -0.23308,-0.0584 -0.0625,-0.0395 -0.11373,-0.0951 -0.16803,-0.18929 -0.0636,-0.10377 -0.16316,-0.14907 -0.27919,-0.14907 -0.0553,0 -0.10732,0.0149 -0.15318,0.0379 -0.18185,0.0951 -0.39854,0.15113 -0.63163,0.15113 h -0.26332 c 1.9675,1.11349 3.05003,1.73849 4.5125,1.67409 z"
           style="fill:#ffffff;fill-opacity:1"
           id="path6-3" />
        <path
           d="m 259.85244,792.92536 c 0.0195,0.0187 0.053,0.0825 0.012,0.16367 -0.023,0.0431 -0.0479,0.073 -0.092,0.10835 -0.0535,0.0427 -0.15726,0.092 -0.29968,0.001 -0.0769,-0.0485 -0.0817,-0.0648 -0.18749,-0.051 -0.0756,0.009 -0.10548,-0.0669 -0.0787,-0.13011 0.0274,-0.0632 0.13882,-0.11454 0.27791,-0.033 0.0628,0.0367 0.16008,0.11453 0.24513,0.0453 0.0356,-0.0279 0.0569,-0.0469 0.10583,-0.10376 0.002,-0.002 0.006,-0.003 0.009,-0.003 0.003,0 0.006,10e-4 0.008,0.003"
           style="fill:#000000"
           id="path8-6" />
        <path
           d="m 258.72509,789.23709 c -0.43672,0.0315 -0.48231,0.0787 -0.56402,0.16547 -0.11527,0.1232 -0.26741,-0.15906 -0.26741,-0.15906 -0.0914,-0.0192 -0.20184,-0.16624 -0.14216,-0.30327 0.0589,-0.13576 0.16752,-0.0953 0.20133,-0.053 0.0412,0.0514 0.1296,0.13575 0.24435,0.13268 0.11476,-0.003 0.24692,-0.0271 0.4316,-0.0271 0.18697,0 0.31249,0.0696 0.31941,0.12986 0.007,0.051 -0.0151,0.0991 -0.2231,0.11453 m 0.459,-0.72154 h -0.002 c -0.007,0 -0.012,-0.005 -0.012,-0.0115 0,-0.005 0.003,-0.009 0.007,-0.0103 0.0848,-0.0445 0.21106,-0.0804 0.35552,-0.0948 0.0433,-0.005 0.0858,-0.007 0.12653,-0.007 h 0.0218 c 0.24256,0.006 0.43645,0.10193 0.43363,0.21515 -0.003,0.11316 -0.20157,0.20056 -0.44439,0.19543 -0.0781,-0.002 -0.15189,-0.0133 -0.21516,-0.0317 -0.008,-0.002 -0.013,-0.008 -0.013,-0.0158 0,-0.008 0.005,-0.0139 0.0133,-0.0159 0.15086,-0.0348 0.25306,-0.0922 0.2459,-0.14626 -0.009,-0.0715 -0.20722,-0.11041 -0.44184,-0.0868 -0.0259,0.002 -0.0507,0.006 -0.075,0.009 m 1.9697,1.69589 c -0.0375,0.12552 -0.0904,0.28611 -0.32709,0.40752 -0.0346,0.0176 -0.0474,-0.0115 -0.0317,-0.0384 0.0897,-0.15215 0.10525,-0.19006 0.13139,-0.24974 0.0361,-0.0878 0.0555,-0.21259 -0.017,-0.47231 -0.14216,-0.51153 -0.43928,-1.19567 -0.6547,-1.41723 -0.20824,-0.21413 -0.58528,-0.27458 -0.92644,-0.18697 -0.12552,0.0321 -0.37116,0.15956 -0.82657,0.0572 -0.78813,-0.1775 -0.90493,0.21696 -0.95001,0.38882 -0.0456,0.17187 -0.1542,0.66032 -0.1542,0.66032 -0.0361,0.19928 -0.0835,0.54507 1.14059,0.77842 0.57016,0.10834 0.59885,0.25588 0.62446,0.36166 0.0453,0.18979 0.11757,0.2984 0.19902,0.3527 0.0814,0.0543 0,0.0994 -0.0905,0.10835 -0.24255,0.0253 -1.14032,-0.23206 -1.67155,-0.53354 -0.43442,-0.26535 -0.44159,-0.50408 -0.34221,-0.70694 -0.65622,-0.071 -1.14879,0.0615 -1.23792,0.37217 -0.15342,0.53277 1.1721,1.44309 2.68152,1.90003 1.58396,0.47924 3.213,0.14446 3.39409,-0.85063 0.0822,-0.45208 -0.29866,-0.7866 -0.94131,-0.93132"
           style="fill:#e93442;stroke:#ffffff;stroke-width:0.181694;stroke-miterlimit:4;stroke-dasharray:none;stroke-opacity:1"
           id="path10-2" />
      </g>
    </g>
  </g>
</svg>
