<?xml version="1.0" encoding="UTF-8" standalone="no"?>
<!-- Created with Inkscape (http://www.inkscape.org/) -->

<svg
   width="14.462721mm"
   height="6.4803009mm"
   id="svg2"
   version="1.1"
   xmlns:xlink="http://www.w3.org/1999/xlink"
   xmlns="http://www.w3.org/2000/svg"
   xmlns:svg="http://www.w3.org/2000/svg"
   xmlns:rdf="http://www.w3.org/1999/02/22-rdf-syntax-ns#"
   xmlns:cc="http://creativecommons.org/ns#"
   xmlns:dc="http://purl.org/dc/elements/1.1/">
  <title
     id="title5870">SVG Stencils</title>
  <defs
     id="defs4" />
  <metadata
     id="metadata7">
    <rdf:RDF>
      <cc:Work
         rdf:about="">
        <dc:format>image/svg+xml</dc:format>
        <dc:type
           rdf:resource="http://purl.org/dc/dcmitype/StillImage" />
        <dc:title>SVG Stencils</dc:title>
        <dc:creator>
          <cc:Agent>
            <dc:title>Waltzer Kristopher</dc:title>
          </cc:Agent>
        </dc:creator>
        <dc:rights>
          <cc:Agent>
            <dc:title />
          </cc:Agent>
        </dc:rights>
        <dc:language />
        <dc:subject>
          <rdf:Bag>
            <rdf:li>architecture stencils server network virtual machine datacenter</rdf:li>
          </rdf:Bag>
        </dc:subject>
        <cc:license
           rdf:resource="http://artlibre.org/licence/lal" />
      </cc:Work>
      <cc:License
         rdf:about="http://creativecommons.org/licenses/by-sa/3.0/">
        <cc:permits
           rdf:resource="http://creativecommons.org/ns#Reproduction" />
        <cc:permits
           rdf:resource="http://creativecommons.org/ns#Distribution" />
        <cc:requires
           rdf:resource="http://creativecommons.org/ns#Notice" />
        <cc:requires
           rdf:resource="http://creativecommons.org/ns#Attribution" />
        <cc:permits
           rdf:resource="http://creativecommons.org/ns#DerivativeWorks" />
        <cc:requires
           rdf:resource="http://creativecommons.org/ns#ShareAlike" />
      </cc:License>
    </rdf:RDF>
  </metadata>
  <g
     id="layer29"
     style="display:inline"
     transform="translate(-786.28226,-241.40773)">
    <g
       id="g7960"
       transform="translate(277.628,-151.862)"
       style="display:inline">
      <g
         id="g3"
         transform="matrix(0.186913,0.107914,-0.215829,0.124609,514.302,386.876)"
         style="stroke:#000000;stroke-width:2.15449;stroke-miterlimit:4;stroke-dasharray:none;stroke-opacity:1">
        <defs
           id="defs5">
          <rect
             x="0"
             id="SVGID_1_-5"
             y="0"
             width="223.10001"
             height="84.300003" />
        </defs>
        <clipPath
           id="clipPath4220">
          <use
             height="100%"
             width="100%"
             y="0"
             x="0"
             style="overflow:visible"
             xlink:href="#SVGID_1_-5"
             overflow="visible"
             id="use4222" />
        </clipPath>
        <path
           id="path33"
           d="m 211.3,36.1 c 0.2,0 0.3,0.1 0.5,0.2 L 211,30.7 c -0.1,-0.5 -0.6,-0.8 -1.1,-0.8 h -1.2 c -0.5,0 -1,0.2 -1,0.8 l 0.4,4.7 z"
           style="fill:#7ac143;stroke:#000000;stroke-width:2.15449;stroke-linecap:round;stroke-miterlimit:4;stroke-dasharray:none;stroke-opacity:1" />
        <path
           id="path35"
           d="m 24.9,39.3 v 0.4 c 0,0.1 0.1,0.3 0.2,0.3 l 1.1,0.1 0.1,-0.4 0.2,-0.8 -1.3,0.1 c -0.2,0 -0.3,0.1 -0.3,0.3"
           style="fill:#7ac143;stroke:#000000;stroke-width:2.15449;stroke-linecap:round;stroke-miterlimit:4;stroke-dasharray:none;stroke-opacity:1" />
        <path
           id="path37"
           d="m 32,34.3 -2.1,5.9 c 0,0.1 -0.1,0.2 -0.2,0.4 l -0.3,0.7 -0.5,8.1 c 0,0.4 0.3,0.7 0.6,0.7 h 2.9 c 0.4,0 0.8,-0.3 0.8,-0.7 L 34.7,42 32.2,34.8 c 0,-0.1 -0.1,-0.3 -0.2,-0.5"
           style="fill:#7ac143;stroke:#000000;stroke-width:2.15449;stroke-linecap:round;stroke-miterlimit:4;stroke-dasharray:none;stroke-opacity:1" />
        <path
           id="path39"
           d="m 116.9,31.5 -2.7,-0.1 c -0.5,0 -1.1,-0.2 -1.5,-0.5 L 100.4,21.5 C 100,21.2 99.9,20.6 100,20.2 l 2.3,-6.9 -14,3.1 c -0.4,0.1 -0.9,0.3 -1,0.6 -0.1,0.2 -0.4,0.7 -0.7,1 l -5.2,7.2 c -0.2,0.3 -0.4,0.7 -0.6,1.1 0,0.1 -0.1,0.2 -0.1,0.4 l -3.2,12.1 c 0,0 0.6,0.1 1.1,0 0,0 0.1,0 0.1,0 0.2,0 0.3,0.1 0.4,0.1 l 0.1,-0.2 3.4,-9.8 c 0,-0.1 0.1,-0.2 0.1,-0.2 0.2,-0.2 0.5,-0.2 0.7,0.1 l 1,1.1 c 0.3,0.3 0.7,1 0.8,1.4 l 6.2,18 c 0.1,0.4 0.6,0.8 1.1,0.8 h 3.7 c 0.5,0 0.8,-0.4 0.8,-0.8 l -0.7,-9.5 c 0,-0.5 0.3,-0.9 0.7,-1.1 l 11,-3.1 c 0.4,-0.1 1,0.1 1.2,0.5 l 7.1,13.2 c 0.2,0.4 0.8,0.7 1.2,0.7 h 4.1 c 0.5,0 0.7,-0.4 0.6,-0.8 z"
           style="fill:#7ac143;stroke:#000000;stroke-width:2.15449;stroke-linecap:round;stroke-miterlimit:4;stroke-dasharray:none;stroke-opacity:1" />
        <path
           id="path41"
           d="m 184.8,28 -3.2,-0.1 c -0.5,0 -1.3,-0.3 -1.8,-0.6 L 165.2,16.1 c -0.4,-0.3 -0.7,-1 -0.5,-1.5 l 2.7,-8.2 -16.5,3.7 c -0.5,0.1 -1.1,0.4 -1.2,0.7 -0.1,0.2 -0.5,0.8 -0.9,1.2 l -6.1,8.6 c -0.2,0.3 -0.5,0.9 -0.7,1.3 -0.1,0.1 -0.1,0.3 -0.1,0.4 l -3.9,14.6 -0.1,0.3 c 0,0 0.6,0.1 1.2,0.1 0.3,0.1 0.5,0.1 0.6,0.2 L 140,36.6 144.1,25 c 0,-0.1 0.1,-0.2 0.2,-0.3 0.2,-0.2 0.6,-0.2 0.8,0.1 l 1.2,1.3 c 0.4,0.4 0.8,1.2 1,1.7 l 7.3,21.3 c 0.2,0.5 0.8,0.9 1.3,0.9 h 4.4 c 0.5,0 0.9,-0.4 0.9,-1 l -0.8,-11.2 c 0,-0.5 0.4,-1.1 0.9,-1.3 l 13,-3.7 c 0.5,-0.1 1.2,0.1 1.4,0.6 l 8.7,15.7 c 0.3,0.5 0.9,0.9 1.5,0.9 h 4.1 c 0.5,0 0.9,-0.4 0.7,-0.9 z"
           style="fill:#7ac143;stroke:#000000;stroke-width:2.15449;stroke-linecap:round;stroke-miterlimit:4;stroke-dasharray:none;stroke-opacity:1" />
        <path
           id="path43"
           d="m 174.4,34.4 c -0.3,-0.1 -0.7,0 -0.7,0 l -2.8,0.8 c 0,0 0,0.1 0,0.1 l -0.8,13.8 c 0,0.5 0.4,1 0.9,1 h 3.3 c 0.5,0 1.1,-0.4 1.2,-1 l 1.8,-9.5 c 0,-0.1 0,-0.2 0,-0.2 l -2.4,-4.5 c 0,0 -0.1,-0.4 -0.5,-0.5"
           style="fill:#7ac143;stroke:#000000;stroke-width:2.15449;stroke-linecap:round;stroke-miterlimit:4;stroke-dasharray:none;stroke-opacity:1" />
        <path
           id="path45"
           d="m 145.3,27.1 c 0,0 -0.2,-0.3 -0.4,-0.3 -0.1,0 -0.2,0.2 -0.2,0.2 l -3.1,8.9 v 0 l -0.9,13.2 c 0,0.5 0.4,1 0.9,1 h 4.1 c 0.5,0 1.1,-0.4 1.2,-1 l 2.2,-11 c 0,-0.2 0.1,-0.4 0.1,-0.6 L 146,28.3 c -0.1,-0.4 -0.4,-1 -0.7,-1.2"
           style="fill:#7ac143;stroke:#000000;stroke-width:2.15449;stroke-linecap:round;stroke-miterlimit:4;stroke-dasharray:none;stroke-opacity:1" />
        <path
           id="path47"
           d="m 139,38.6 -5.6,-0.7 -0.1,3.1 c 0,0.2 -0.1,0.5 -0.1,0.7 l 3.2,-0.4 c 0.4,0 1,-0.2 1.4,-0.5 l 1.4,-1.3 c 0.3,-0.4 0.2,-0.8 -0.2,-0.9"
           style="fill:#7ac143;stroke:#000000;stroke-width:2.15449;stroke-linecap:round;stroke-miterlimit:4;stroke-dasharray:none;stroke-opacity:1" />
        <path
           id="path49"
           d="m 132.4,23 -5.3,-9.3 c -0.2,-0.4 -0.8,-0.8 -1.2,-0.9 l -8.5,-1.5 5.4,13.1 0.3,0.8 2.3,1 c 0.4,0.2 0.8,0.7 0.8,1.2 l 0.8,10.5 c 0,0.5 0.4,1 0.8,1.3 l 3.4,2.1 c 0.4,0.2 0.7,0.1 0.7,-0.4 l 0.5,-17.4 c 0,0 0,-0.1 0,-0.1 0.1,-0.1 0,-0.2 0,-0.4 M 125,16.3 c -0.6,0 -1.1,-0.5 -1.1,-1.1 0,-0.6 0.5,-1.1 1.1,-1.1 0.6,0 1.1,0.5 1.1,1.1 0,0.7 -0.5,1.1 -1.1,1.1 z"
           style="fill:#7ac143;stroke:#000000;stroke-width:2.15449;stroke-linecap:round;stroke-miterlimit:4;stroke-dasharray:none;stroke-opacity:1" />
        <path
           id="path51"
           d="m 211,37.4 -6.9,-1.8 -0.1,3.7 c 0,0.3 -0.1,0.6 -0.2,0.8 l 4.1,0.4 c 0.5,0.1 1.3,-0.2 1.7,-0.6 l 1.7,-1.6 c 0.3,-0.4 0.2,-0.8 -0.3,-0.9"
           style="fill:#7ac143;stroke:#000000;stroke-width:2.15449;stroke-linecap:round;stroke-miterlimit:4;stroke-dasharray:none;stroke-opacity:1" />
        <path
           id="path53"
           d="M 190.6,20.6 183.8,4.2 183.5,3.5 C 183.3,3 182.7,2.5 182.2,2.4 L 171.8,0 c -0.5,-0.1 -1.1,0.2 -1.3,0.7 l -1.8,5.5 -2.6,7.9 c -0.2,0.5 0,1.2 0.5,1.5 L 180.2,26 c 0.4,0.3 1.2,0.6 1.8,0.6 l 2.3,0.1 7.9,0.2 c 0.5,0 0.8,-0.4 0.6,-0.9 z"
           style="fill:#7ac143;stroke:#000000;stroke-width:2.15449;stroke-linecap:round;stroke-miterlimit:4;stroke-dasharray:none;stroke-opacity:1" />
        <path
           id="path55"
           d="M 203.2,18 197,7 c -0.3,-0.5 -0.9,-0.9 -1.5,-1 l -10.3,-1.8 6.5,15.7 0.2,0.6 v 0.1 L 195,22 c 0.5,0.2 0.9,0.8 1,1.4 l 0.9,12.5 c 0,0.5 0.5,1.2 0.9,1.5 l 4,2.4 c 0.5,0.3 0.9,0.1 0.9,-0.5 l 0.6,-20.6 c 0,0 0,-0.1 0,-0.1 0,-0.3 -0.1,-0.4 -0.1,-0.6 m -8.8,-7.6 c -0.8,0 -1.4,-0.6 -1.4,-1.4 0,-0.8 0.6,-1.4 1.4,-1.4 0.8,0 1.4,0.6 1.4,1.4 0,0.7 -0.6,1.4 -1.4,1.4 z"
           style="fill:#7ac143;stroke:#000000;stroke-width:2.15449;stroke-linecap:round;stroke-miterlimit:4;stroke-dasharray:none;stroke-opacity:1" />
        <path
           id="path57"
           d="m 115.7,10.7 c -0.2,-0.4 -0.7,-0.8 -1.1,-1 L 105.9,7.8 C 105.5,7.7 105,8 104.8,8.4 l -1.5,4.6 -2.2,6.7 c -0.1,0.4 0,1 0.4,1.3 l 11.5,8.8 c 0.4,0.3 1,0.5 1.5,0.5 h 2 l 6.6,0.2 c 0.5,0 0.7,-0.3 0.5,-0.7 z"
           style="fill:#7ac143;stroke:#000000;stroke-width:2.15449;stroke-linecap:round;stroke-miterlimit:4;stroke-dasharray:none;stroke-opacity:1" />
        <path
           id="path59"
           d="M 72.9,27.5 68.5,19.7 C 68.3,19.4 67.9,19 67.5,19 l -6.8,-1.2 4.7,11.3 0.2,0.4 1.6,0.7 c 0.3,0.2 0.7,0.6 0.7,1 l 0.6,8.8 c 0,0.4 0.3,0.9 0.6,1.1 l 2.8,1.7 c 0.3,0.2 0.6,0 0.6,-0.3 L 72.9,28 c 0,0 0,0 0,-0.1 0,-0.2 0,-0.3 0,-0.4 m -6.2,-5.7 c -0.4,0 -0.8,-0.4 -0.8,-0.8 0,-0.4 0.4,-0.8 0.8,-0.8 0.4,0 0.8,0.4 0.8,0.8 0,0.5 -0.3,0.8 -0.8,0.8 z"
           style="fill:#7ac143;stroke:#000000;stroke-width:2.15449;stroke-linecap:round;stroke-miterlimit:4;stroke-dasharray:none;stroke-opacity:1" />
        <path
           id="path61"
           d="m 59,17.2 c -0.1,-0.3 -0.6,-0.7 -0.9,-0.8 l -7.2,-1.6 c -0.4,-0.1 -0.8,0.1 -0.9,0.5 l -3.1,9.4 c -0.1,0.4 0,0.9 0.3,1.1 l 9.6,7.3 c 0.3,0.2 0.9,0.4 1.2,0.4 l 7.2,0.2 c 0.4,0 0.6,-0.3 0.4,-0.6 z"
           style="fill:#7ac143;stroke:#000000;stroke-width:2.15449;stroke-linecap:round;stroke-miterlimit:4;stroke-dasharray:none;stroke-opacity:1" />
        <path
           id="path63"
           d="m 78.4,40 -4.5,-0.1 -0.1,2.6 c 0,0.2 -0.1,0.3 -0.1,0.4 l 2.4,-0.7 c 0.3,-0.1 1,-0.2 1.3,-0.5 l 1.1,-1 c 0.3,-0.3 0.2,-0.6 -0.1,-0.7"
           style="fill:#7ac143;stroke:#000000;stroke-width:2.15449;stroke-linecap:round;stroke-miterlimit:4;stroke-dasharray:none;stroke-opacity:1" />
        <path
           id="path65"
           d="m 60,34.9 h -2.1 c -0.7,0 -1.5,-0.3 -2,-0.7 l -9.6,-7.3 c -0.7,-0.6 -1.1,-1.6 -0.8,-2.5 l 1.6,-5 -11.1,2.5 c -0.4,0.1 -0.8,0.3 -0.9,0.5 -0.1,0.2 -0.4,0.6 -0.6,0.9 l -4.3,6 c -0.2,0.3 -0.5,0.9 -0.6,1.2 L 27.4,40 c -0.1,0.4 1.2,0.2 1.3,-0.2 l 2.6,-7.3 c 0.1,-0.4 0.4,-0.4 0.7,-0.1 l 0.8,0.9 c 0.3,0.3 0.6,0.8 0.7,1.2 l 5.2,15 c 0.1,0.4 0.5,0.7 0.9,0.7 h 3.1 c 0.4,0 0.7,-0.3 0.6,-0.7 l -0.6,-7.9 c 0,-0.4 0.2,-0.8 0.6,-0.9 l 9.2,-2.6 c 0.4,-0.1 0.8,0.1 1,0.4 l 5.9,11 c 0.2,0.3 0.6,0.6 1,0.6 h 3.4 c 0.4,0 0.6,-0.3 0.5,-0.7 z"
           style="fill:#7ac143;stroke:#000000;stroke-width:2.15449;stroke-linecap:round;stroke-miterlimit:4;stroke-dasharray:none;stroke-opacity:1" />
        <path
           id="path67"
           d="m 105.1,37.8 -0.7,11.5 c 0,0.5 0.3,0.8 0.8,0.8 h 2.8 c 0.5,0 0.9,-0.4 1,-0.8 l 1.5,-7.9 -2.4,-4.5 z"
           style="fill:#7ac143;stroke:#000000;stroke-width:2.15449;stroke-linecap:round;stroke-miterlimit:4;stroke-dasharray:none;stroke-opacity:1" />
        <path
           id="path69"
           d="M 83.4,30.8 83.3,30.7 80.4,39 79.7,49.4 c 0,0.5 0.3,0.8 0.8,0.8 H 84 c 0.5,0 0.9,-0.4 1,-0.8 l 1.8,-9.3 c 0,0 0,0 0,0 L 84,31.8 c -0.1,-0.3 -0.4,-0.8 -0.6,-1"
           style="fill:#7ac143;stroke:#000000;stroke-width:2.15449;stroke-linecap:round;stroke-miterlimit:4;stroke-dasharray:none;stroke-opacity:1" />
        <path
           id="path71"
           d="m 50.1,40.1 -0.6,9.4 c 0,0.4 0.3,0.7 0.7,0.7 h 2.3 c 0.4,0 0.8,-0.3 0.8,-0.7 l 1.2,-6.2 -2.1,-3.8 z"
           style="fill:#7ac143;stroke:#000000;stroke-width:2.15449;stroke-linecap:round;stroke-miterlimit:4;stroke-dasharray:none;stroke-opacity:1" />
      </g>
      <path
         style="fill:none;fill-rule:evenodd;stroke:#000000;stroke-width:0.8;stroke-linecap:round;stroke-linejoin:round;stroke-miterlimit:4;stroke-dasharray:none;stroke-opacity:1"
         d="m 519.61524,402.36221 25.98077,15 17.3205,-10"
         id="path5330-5-5-9-5-0" />
    </g>
  </g>
</svg>
