<?xml version="1.0" encoding="UTF-8" standalone="no"?>
<!-- Created with Inkscape (http://www.inkscape.org/) -->

<svg
   width="11.668461mm"
   height="5.4743757mm"
   id="svg2"
   version="1.1"
   xmlns="http://www.w3.org/2000/svg"
   xmlns:svg="http://www.w3.org/2000/svg"
   xmlns:rdf="http://www.w3.org/1999/02/22-rdf-syntax-ns#"
   xmlns:cc="http://creativecommons.org/ns#"
   xmlns:dc="http://purl.org/dc/elements/1.1/">
  <title
     id="title5870">SVG Stencils</title>
  <defs
     id="defs4" />
  <metadata
     id="metadata7">
    <rdf:RDF>
      <cc:Work
         rdf:about="">
        <dc:format>image/svg+xml</dc:format>
        <dc:type
           rdf:resource="http://purl.org/dc/dcmitype/StillImage" />
        <dc:title>SVG Stencils</dc:title>
        <dc:creator>
          <cc:Agent>
            <dc:title>Waltzer Kristopher</dc:title>
          </cc:Agent>
        </dc:creator>
        <dc:rights>
          <cc:Agent>
            <dc:title />
          </cc:Agent>
        </dc:rights>
        <dc:language />
        <dc:subject>
          <rdf:Bag>
            <rdf:li>architecture stencils server network virtual machine datacenter</rdf:li>
          </rdf:Bag>
        </dc:subject>
        <cc:license
           rdf:resource="http://artlibre.org/licence/lal" />
      </cc:Work>
      <cc:License
         rdf:about="http://creativecommons.org/licenses/by-sa/3.0/">
        <cc:permits
           rdf:resource="http://creativecommons.org/ns#Reproduction" />
        <cc:permits
           rdf:resource="http://creativecommons.org/ns#Distribution" />
        <cc:requires
           rdf:resource="http://creativecommons.org/ns#Notice" />
        <cc:requires
           rdf:resource="http://creativecommons.org/ns#Attribution" />
        <cc:permits
           rdf:resource="http://creativecommons.org/ns#DerivativeWorks" />
        <cc:requires
           rdf:resource="http://creativecommons.org/ns#ShareAlike" />
      </cc:License>
    </rdf:RDF>
  </metadata>
  <g
     id="layer33"
     style="display:inline"
     transform="translate(-692.91993,-177.04372)">
    <text
       xml:space="preserve"
       style="font-style:normal;font-variant:normal;font-weight:500;font-stretch:normal;line-height:0%;font-family:Futura;-inkscape-font-specification:'Futura Medium';text-align:start;letter-spacing:0px;word-spacing:0px;text-anchor:start;display:inline;fill:#000000;fill-opacity:1;stroke:none"
       x="580.23627"
       y="12.363788"
       id="text4816-2-5-5-6-2-4"
       transform="matrix(1,0.577348,4.03162e-6,1,113.083,-156.862)"><tspan
         id="tspan4818-6-5-4-3-3-3"
         x="580.23627"
         y="12.363788"
         style="font-style:normal;font-variant:normal;font-weight:500;font-stretch:normal;font-size:5.99998px;line-height:1.25;font-family:Futura;-inkscape-font-specification:'Futura Medium';letter-spacing:-0.0999997px">DNS</tspan></text>
    <g
       id="g5514"
       transform="translate(286.288,-606.862)"
       style="display:inline">
      <g
         id="g5487">
        <path
           style="fill:#d7eef4;fill-opacity:1;stroke:#000000;stroke-width:1;stroke-linecap:round;stroke-linejoin:round;stroke-miterlimit:4;stroke-dasharray:none;stroke-dashoffset:0;stroke-opacity:1"
           d="m 436.199,786.66907 a 7.7060176,13.347578 89.740874 0 0 -18.87519,0.0285 7.7060176,13.347578 89.740874 0 0 -3.79668,4.41467 l 14.97277,8.64453 a 7.7060176,13.347578 89.740874 0 0 7.64981,-2.19006 7.7060176,13.347578 89.740874 0 0 0.0493,-10.8976 z"
           id="path3144-7" />
        <path
           style="fill:#87cdde;fill-opacity:1;fill-rule:evenodd;stroke:#000000;stroke-width:1;stroke-linecap:round;stroke-linejoin:round;stroke-miterlimit:4;stroke-dasharray:none;stroke-opacity:1"
           d="m 421.06768,789.08288 c -0.10404,-0.05 -0.2879,-0.0714 -0.35054,-0.11402 -0.19143,-0.13003 -0.47982,-0.021 -0.68448,-0.14584 -0.21795,-0.13287 -0.48684,-0.19573 -0.77548,-0.26906 -0.24275,-0.0616 -0.55142,-0.0929 -0.80689,-0.0791 -0.1512,0.008 -0.29595,0.0828 -0.4144,0.14556 -0.39317,0.2083 -0.81643,0.41996 -1.11889,0.66749 -0.16506,0.135 -0.29154,0.31861 -0.28368,0.48019 0.0119,0.24445 0.23194,0.49112 0.34261,0.73774 0.0755,0.16826 0.30728,0.35403 0.21817,0.50685 -0.18246,0.31289 -0.68929,0.59306 -1.03173,0.89059 -0.16655,0.14467 -0.34479,0.28727 -0.52088,0.42964 l 1.88259,1.08691 c 0.0174,-0.0151 0.0455,-0.0312 0.0579,-0.0451 0.59981,-0.69879 1.62598,-0.77354 1.72844,-0.828 0.1451,-0.0768 0.53211,-0.41018 1.07373,-0.42655 0.37008,-0.0112 0.72811,0.16552 1.15028,-0.10552 0.17696,-0.11357 0.20345,-0.372 0.39562,-0.48232 0.22133,-0.12724 0.57993,0.0471 0.84559,-0.23039 0.0821,-0.0857 0.18988,-0.20303 0.0811,-0.30071 -0.2157,-0.19359 -0.56081,-0.21589 -0.82235,-0.40412 -0.25888,-0.18625 -0.32311,-0.6673 -0.52175,-0.87846 -0.11112,-0.11813 -0.3293,-0.44851 -0.37558,-0.57417 -0.009,-0.0246 -0.0347,-0.0449 -0.0692,-0.0616 z"
           id="path4183-2" />
        <path
           style="fill:#87cdde;fill-opacity:1;fill-rule:evenodd;stroke:#000000;stroke-width:1;stroke-linecap:round;stroke-linejoin:round;stroke-miterlimit:4;stroke-dasharray:none;stroke-opacity:1"
           d="m 429.44224,792.00564 c -0.34983,-0.18017 -0.81281,-0.31507 -1.2193,-0.37806 -0.35477,-0.055 -0.82768,-0.0139 -1.21947,0.0263 -0.51537,0.0529 -1.08862,-0.11904 -1.52958,-0.0212 -0.1345,0.0299 -0.1637,0.36795 -0.26819,0.42828 -0.12043,0.0695 -0.34689,0.10848 -0.49257,0.1711 -0.21964,0.0944 -0.41663,0.27145 -0.47669,0.40608 -0.0627,0.14077 0.16371,0.32158 0.22167,0.4853 0.0528,0.14914 -0.0222,0.35137 0.10989,0.45219 0.10084,0.0769 0.46235,0.0136 0.5881,0.0804 0.10743,0.057 -0.002,0.23575 0.11061,0.2916 0.15816,0.0787 0.57408,0.0231 0.70158,0.11253 0.13334,0.0937 0.15769,0.31343 0.0828,0.43655 -0.0664,0.10914 -0.42205,0.14728 -0.50824,0.26024 -0.14887,0.19504 -0.002,0.4938 -0.19802,0.66316 -0.17945,0.155 -0.64452,0.18706 -0.92565,0.30981 -0.17779,0.0777 -0.33936,0.18233 -0.45077,0.29145 -0.0763,0.0747 -0.0336,0.18576 -0.1148,0.25964 -0.16886,0.15379 -0.45332,0.27623 -0.63955,0.42395 l 1.8014,1.04004 c 0.28209,-0.0546 0.54533,-0.15458 0.82519,-0.22057 0.28491,-0.0672 0.57174,-0.13992 0.86911,-0.17951 0.23577,-0.0314 0.51918,0.0251 0.72937,-0.0324 0.2859,-0.0782 0.54873,-0.23161 0.7597,-0.37421 0.11721,-0.0792 0.0641,-0.276 0.22517,-0.29212 0.60585,-0.0606 1.38798,0.0818 2.07378,0.0625 0.37768,-0.0106 1.11008,-0.0407 1.11658,-0.15247 0.009,-0.15004 -1.04306,-0.37209 -1.06896,-0.63284 -0.0523,-0.52577 0.95239,-1.17065 0.8337,-1.72548 -0.14678,-0.68609 -0.91782,-1.41754 -1.63087,-1.99787 -0.0848,-0.0691 -0.18947,-0.13432 -0.30606,-0.19439 z"
           id="path5058-4" />
        <path
           style="fill:#87cdde;fill-opacity:1;fill-rule:evenodd;stroke:#000000;stroke-width:1;stroke-linecap:round;stroke-linejoin:round;stroke-miterlimit:4;stroke-dasharray:none;stroke-opacity:1"
           d="m 431.35613,785.17591 c -4.58065,-1.01837 -9.98756,-0.45495 -13.69576,1.68599 -0.10274,0.0593 -0.20272,0.12004 -0.30293,0.17989 0.0193,0.26971 0.0997,0.50862 0.2735,0.68465 0.40349,0.40862 1.93319,0.36396 2.92241,0.4776 0.73701,0.0847 1.50769,0.11341 2.25564,0.11735 0.25145,0.001 0.5025,-0.11767 0.74313,-0.10166 0.31314,0.0208 0.68741,0.27018 0.91842,0.21201 0.27959,-0.0704 0.41619,-0.39612 0.61304,-0.59776 0.18499,-0.1895 0.63938,-0.12178 0.68566,-0.22774 0.13393,-0.30678 0.13035,-0.42956 0.40163,-0.47079 0.13068,-0.0199 0.58659,0.0272 0.73483,0.0368 0.2526,0.0163 0.62297,-10e-4 0.88868,-0.009 0.57444,-0.0163 0.85132,-0.003 1.29042,0.0611 0.3196,0.0465 0.503,0.12469 0.68281,0.21237 0.26388,0.12863 0.60808,0.20183 0.81993,0.089 0.008,-0.004 0.0121,-0.01 0.0145,-0.0154 1e-5,-0.003 0.002,-0.006 9.1e-4,-0.01 -0.01,-0.0608 -0.26336,-0.17125 -0.24129,-0.25296 0.0657,-0.24329 0.48577,-0.503 0.4993,-0.73658 0.007,-0.12655 -0.3689,-0.21801 -0.43803,-0.34387 -0.0512,-0.0937 -0.002,-0.2224 0.0774,-0.31504 0.14883,-0.17353 0.41108,-0.31964 0.60828,-0.48293 0.0791,-0.0655 0.16248,-0.13031 0.24672,-0.19455 z"
           id="path5063-0" />
        <path
           style="fill:#87cdde;fill-opacity:1;fill-rule:evenodd;stroke:#000000;stroke-width:1;stroke-linecap:round;stroke-linejoin:round;stroke-miterlimit:4;stroke-dasharray:none;stroke-opacity:1"
           d="m 437.36444,787.87097 c -0.15431,-0.0333 -0.30884,-0.063 -0.45887,-0.09 -0.90718,-0.16345 -2.04961,-0.45105 -2.85591,-0.26824 -1.07134,0.24289 -1.94683,0.98936 -2.77705,1.54533 -0.32475,0.2175 -0.59622,0.51896 -0.68726,0.77531 -0.0372,0.10488 0.30421,0.21634 0.30251,0.30806 -2e-5,5.6e-4 -10e-6,10e-4 -2e-5,0.003 0,6.7e-4 -10e-6,0.003 -8.8e-4,0.004 -0.002,0.002 -0.002,0.004 -0.003,0.006 -0.0354,0.0457 -0.28495,0.068 -0.30951,0.1158 -0.002,0.002 -8.9e-4,0.005 -0.003,0.007 -1e-5,0.003 8.4e-4,0.008 0.004,0.0114 0.34743,0.52404 1.04551,1.07093 1.4831,1.62417 0.11031,0.13938 0.20775,0.30528 0.16015,0.45417 -0.16097,0.50351 -0.55134,0.99908 -0.78533,1.50339 -0.0486,0.10465 -0.16984,0.24718 -0.0629,0.3234 0.32656,0.23287 0.83775,0.5834 1.36309,0.60316 1.04403,0.0393 2.53199,-0.63381 3.34564,-0.42642 0.73074,0.18624 1.27986,1.10459 1.28772,1.60721 0.005,0.31241 -1.03909,0.52242 -1.24926,0.83825 -0.077,0.11578 -0.096,0.26844 -0.0676,0.41656 4.30595,-2.58294 4.74761,-6.51996 1.31255,-9.35923 z"
           id="path5090-7" />
      </g>
      <path
         id="path5330-5-5-9"
         d="m 407.03193,787.3622 25.98077,15 17.3205,-10"
         style="fill:none;fill-rule:evenodd;stroke:#000000;stroke-width:0.8;stroke-linecap:round;stroke-linejoin:round;stroke-miterlimit:4;stroke-dasharray:none;stroke-opacity:1" />
    </g>
  </g>
</svg>
